<svg width="765.43727" height="647.17292" xmlns="http://www.w3.org/2000/svg">

 <g>
  <title>background</title>
  <rect fill="none" id="canvas_background" height="649.17292" width="767.43727" y="-1" x="-1"/>
 </g>
 <g>
  <title>Layer 1</title>
  <path id="svg_1" fill="#ccc" d="m614.85719,169.66291l-13.04,-51.28l-18.33985,-72.1l-1.04,-4.07l0,-0.01l-7.25,-28.51a18.1915,18.1915 0 0 0 -22.08984,-13.13l-48.18018,12.25l-301.04,76.57a18.19159,18.19159 0 0 0 -13.12989,22.09l10.39014,40.86l26.3999,103.79l9.93018,39.05l0.50976,2l2.2002,0l-0.51026,-2l-9.48974,-37.34l0,-0.00994l-27.54,-108.26l-9.82031,-38.61a16.06077,16.06077 0 0 1 11.59033,-19.5l300.40967,-76.41l48.80029,-12.41a16.06072,16.06072 0 0 1 19.5,11.59l7.69971,30.26l1.04,4.11l17.82031,70.07l12.96973,51l0.54,2.14l2.22022,0l-0.55037,-2.14006z"/>
  <path id="svg_6" fill="#3f3d56" d="m731.37721,169.66291l-360.33008,0a18.22092,18.22092 0 0 0 -17.63965,13.78l0,0.01a18.134,18.134 0 0 0 -0.54,4.38995l0,152.3l1.16992,1.03l0.96973,0.86l0,-154.19a16.05763,16.05763 0 0 1 16.04,-16.04l360.33008,0a16.051,16.051 0 0 1 16.04,16.04l0,185.33l1.02,0a10.38615,10.38615 0 0 1 1.12012,0.05l0,-185.38a18.20652,18.20652 0 0 0 -18.18012,-18.17995z"/>
  <path id="svg_10" fill="#3f3d56" d="m377.90748,359.55293l-12.43994,-10.96l-0.03028,-0.01995l-0.04,-0.03l-0.02979,-0.03c-0.39014,-0.28 -0.78027,-0.57 -1.16016,-0.87006c-0.10009,-0.06994 -0.18994,-0.13995 -0.27978,-0.21c-0.05029,-0.04 -0.09033,-0.07 -0.14014,-0.11c-0.02,-0.01 -0.03027,-0.03 -0.05029,-0.04c-0.27979,-0.22 -0.56983,-0.45 -0.84961,-0.68c-0.14014,-0.1 -0.27,-0.21 -0.41016,-0.32c-0.37988,-0.31 -0.75976,-0.63 -1.14013,-0.95c-0.39991,-0.34 -0.79981,-0.68 -1.19971,-1.03c-0.01025,-0.01 -0.03027,-0.02 -0.04,-0.03c-0.08008,-0.07 -0.15039,-0.14 -0.23,-0.2c-0.38037,-0.34 -0.76025,-0.68006 -1.14014,-1.04c-0.31982,-0.29 -0.64013,-0.59 -0.95019,-0.88c-0.29,-0.27 -0.58008,-0.54 -0.85987,-0.82995l-0.06005,-0.06c-0.21,-0.2 -0.41993,-0.41 -0.63965,-0.63c-0.21045,-0.2 -0.41016,-0.41 -0.61035,-0.62c-0.21,-0.2 -0.41016,-0.41 -0.6001,-0.62006l-0.15967,-0.16l-0.05029,-0.05l-1.92969,-1.71l0,2.67l1.16992,1.03l0.96973,0.86l20.55029,18.12l1.92969,1.71l0.49023,0.43l0.46,-0.67l0.69,-0.99l-1.21987,-1.07998zm298.65967,11.62c0.03027,0.66 0.08008,1.33 0.12988,2l70.72021,0l0,-2l-70.85009,0zm-298.65967,-11.62l-12.43994,-10.96l-0.03028,-0.01995l-0.04,-0.03l-0.02979,-0.03c-0.39014,-0.28 -0.78027,-0.57 -1.16016,-0.87006c-0.10009,-0.06994 -0.18994,-0.13995 -0.27978,-0.21c-0.05029,-0.04 -0.09033,-0.07 -0.14014,-0.11c-0.02,-0.01 -0.03027,-0.03 -0.05029,-0.04c-0.27979,-0.22 -0.56983,-0.45 -0.84961,-0.68c-0.14014,-0.1 -0.27,-0.21 -0.41016,-0.32c-0.37988,-0.31 -0.75976,-0.63 -1.14013,-0.95c-0.39991,-0.34 -0.79981,-0.68 -1.19971,-1.03c-0.01025,-0.01 -0.03027,-0.02 -0.04,-0.03c-0.08008,-0.07 -0.15039,-0.14 -0.23,-0.2c-0.38037,-0.34 -0.76025,-0.68006 -1.14014,-1.04c-0.31982,-0.29 -0.64013,-0.59 -0.95019,-0.88c-0.29,-0.27 -0.58008,-0.54 -0.85987,-0.82995l-0.06005,-0.06c-0.21,-0.2 -0.41993,-0.41 -0.63965,-0.63c-0.21045,-0.2 -0.41016,-0.41 -0.61035,-0.62c-0.21,-0.2 -0.41016,-0.41 -0.6001,-0.62006l-0.15967,-0.16l-0.05029,-0.05l-1.92969,-1.71l0,2.67l1.16992,1.03l0.96973,0.86l20.55029,18.12l1.92969,1.71l0.49023,0.43l0.46,-0.67l0.69,-0.99l-1.21987,-1.07998zm352.46973,11.62l-53.81006,0c0.03027,0.66 0.08008,1.33 0.12988,2l55.08008,0l-1.3999,-2zm-352.46973,-11.62l-12.43994,-10.96l-0.03028,-0.01995l-0.04,-0.03l-0.02979,-0.03c-0.39014,-0.28 -0.78027,-0.57 -1.16016,-0.87006c-0.10009,-0.06994 -0.18994,-0.13995 -0.27978,-0.21c-0.05029,-0.04 -0.09033,-0.07 -0.14014,-0.11c-0.02,-0.01 -0.03027,-0.03 -0.05029,-0.04c-0.27979,-0.22 -0.56983,-0.45 -0.84961,-0.68c-0.14014,-0.1 -0.27,-0.21 -0.41016,-0.32c-0.37988,-0.31 -0.75976,-0.63 -1.14013,-0.95c-0.39991,-0.34 -0.79981,-0.68 -1.19971,-1.03c-0.01025,-0.01 -0.03027,-0.02 -0.04,-0.03c-0.08008,-0.07 -0.15039,-0.14 -0.23,-0.2c-0.38037,-0.34 -0.76025,-0.68006 -1.14014,-1.04c-0.31982,-0.29 -0.64013,-0.59 -0.95019,-0.88c-0.29,-0.27 -0.58008,-0.54 -0.85987,-0.82995l-0.06005,-0.06c-0.21,-0.2 -0.41993,-0.41 -0.63965,-0.63c-0.21045,-0.2 -0.41016,-0.41 -0.61035,-0.62c-0.21,-0.2 -0.41016,-0.41 -0.6001,-0.62006l-0.15967,-0.16l-0.05029,-0.05l-1.92969,-1.71l0,2.67l1.16992,1.03l0.96973,0.86l20.55029,18.12l1.92969,1.71l0.49023,0.43l0.46,-0.67l0.69,-0.99l-1.21987,-1.07998zm-48.56006,-42.82l-19.62988,-17.31a16.97377,16.97377 0 0 0 -11.24024,-4.25l-58.81006,0l0.51026,2l58.2998,0a14.96508,14.96508 0 0 1 9.91993,3.75l18.60009,16.41l25.87012,22.81l0,-2.67l-23.52002,-20.74zm420.21,54.48c-0.37012,-0.03 -0.74023,-0.04 -1.12012,-0.04l-351.68998,0a14.94465,14.94465 0 0 1 -9.31006,-3.24c-0.21,-0.16 -0.41015,-0.33 -0.60986,-0.51l-6.98,-6.16l-0.72021,-0.63l-1.21973,-1.08l-12.43994,-10.96l-0.03028,-0.01995l-0.04,-0.03l-0.02979,-0.03l-8.31006,-7.34l-2.05029,-1.81l-0.15967,-0.13l-0.05029,-0.05l-1.92969,-1.71l-23.52,-20.74l-19.62988,-17.31a16.97377,16.97377 0 0 0 -11.24024,-4.25l-86.04,0a17.02412,17.02412 0 0 0 -17,17l0,318a17.02411,17.02411 0 0 0 17,17l536,0a17.0241,17.0241 0 0 0 17,-17l0,-242a17.02788,17.02788 0 0 0 -15.87995,-16.96008l0.00004,0.00003zm13.87988,258.96a15.01828,15.01828 0 0 1 -15,15l-536,0a15.01828,15.01828 0 0 1 -15,-15l0,-318a15.01828,15.01828 0 0 1 15,-15l86.04,0a14.96508,14.96508 0 0 1 9.91993,3.75l18.60009,16.41l25.87012,22.81l1.16992,1.03l0.96973,0.86l20.55029,18.12l1.92969,1.71l0.49023,0.43l7.52,6.63a17.14841,17.14841 0 0 0 11.25,4.25l351.68996,0a10.38615,10.38615 0 0 1 1.12012,0.05a15.01154,15.01154 0 0 1 13.87988,14.95l0.00004,242zm-385.52978,-270.62l-12.43994,-10.96l-0.03028,-0.01995l-0.04,-0.03l-0.02979,-0.03c-0.39014,-0.28 -0.78027,-0.57 -1.16016,-0.87006c-0.10009,-0.06994 -0.18994,-0.13995 -0.27978,-0.21c-0.05029,-0.04 -0.09033,-0.07 -0.14014,-0.11c-0.02,-0.01 -0.03027,-0.03 -0.05029,-0.04c-0.27979,-0.22 -0.56983,-0.45 -0.84961,-0.68c-0.14014,-0.1 -0.27,-0.21 -0.41016,-0.32c-0.37988,-0.31 -0.75976,-0.63 -1.14013,-0.95c-0.39991,-0.34 -0.79981,-0.68 -1.19971,-1.03c-0.01025,-0.01 -0.03027,-0.02 -0.04,-0.03c-0.08008,-0.07 -0.15039,-0.14 -0.23,-0.2c-0.38037,-0.34 -0.76025,-0.68006 -1.14014,-1.04c-0.31982,-0.29 -0.64013,-0.59 -0.95019,-0.88c-0.29,-0.27 -0.58008,-0.54 -0.85987,-0.82995l-0.06005,-0.06c-0.21,-0.2 -0.41993,-0.41 -0.63965,-0.63c-0.21045,-0.2 -0.41016,-0.41 -0.61035,-0.62c-0.21,-0.2 -0.41016,-0.41 -0.6001,-0.62006l-0.15967,-0.16l-0.05029,-0.05l-1.92969,-1.71l0,2.67l1.16992,1.03l0.96973,0.86l20.55029,18.12l1.92969,1.71l0.49023,0.43l0.46,-0.67l0.69,-0.99l-1.21987,-1.07998zm298.65967,11.62c0.03027,0.66 0.08008,1.33 0.12988,2l70.72021,0l0,-2l-70.85009,0zm-298.65967,-11.62l-12.43994,-10.96l-0.03028,-0.01995l-0.04,-0.03l-0.02979,-0.03c-0.39014,-0.28 -0.78027,-0.57 -1.16016,-0.87006c-0.10009,-0.06994 -0.18994,-0.13995 -0.27978,-0.21c-0.05029,-0.04 -0.09033,-0.07 -0.14014,-0.11c-0.02,-0.01 -0.03027,-0.03 -0.05029,-0.04c-0.27979,-0.22 -0.56983,-0.45 -0.84961,-0.68c-0.14014,-0.1 -0.27,-0.21 -0.41016,-0.32c-0.37988,-0.31 -0.75976,-0.63 -1.14013,-0.95c-0.39991,-0.34 -0.79981,-0.68 -1.19971,-1.03c-0.01025,-0.01 -0.03027,-0.02 -0.04,-0.03c-0.08008,-0.07 -0.15039,-0.14 -0.23,-0.2c-0.38037,-0.34 -0.76025,-0.68006 -1.14014,-1.04c-0.31982,-0.29 -0.64013,-0.59 -0.95019,-0.88c-0.29,-0.27 -0.58008,-0.54 -0.85987,-0.82995l-0.06005,-0.06c-0.21,-0.2 -0.41993,-0.41 -0.63965,-0.63c-0.21045,-0.2 -0.41016,-0.41 -0.61035,-0.62c-0.21,-0.2 -0.41016,-0.41 -0.6001,-0.62006l-0.15967,-0.16l-0.05029,-0.05l-1.92969,-1.71l0,2.67l1.16992,1.03l0.96973,0.86l20.55029,18.12l1.92969,1.71l0.49023,0.43l0.46,-0.67l0.69,-0.99l-1.21987,-1.07998zm0,0l-12.43994,-10.96l-0.03028,-0.01995l-0.04,-0.03l-0.02979,-0.03c-0.39014,-0.28 -0.78027,-0.57 -1.16016,-0.87006c-0.10009,-0.06994 -0.18994,-0.13995 -0.27978,-0.21c-0.05029,-0.04 -0.09033,-0.07 -0.14014,-0.11c-0.02,-0.01 -0.03027,-0.03 -0.05029,-0.04c-0.27979,-0.22 -0.56983,-0.45 -0.84961,-0.68c-0.14014,-0.1 -0.27,-0.21 -0.41016,-0.32c-0.37988,-0.31 -0.75976,-0.63 -1.14013,-0.95c-0.39991,-0.34 -0.79981,-0.68 -1.19971,-1.03c-0.01025,-0.01 -0.03027,-0.02 -0.04,-0.03c-0.08008,-0.07 -0.15039,-0.14 -0.23,-0.2c-0.38037,-0.34 -0.76025,-0.68006 -1.14014,-1.04c-0.31982,-0.29 -0.64013,-0.59 -0.95019,-0.88c-0.29,-0.27 -0.58008,-0.54 -0.85987,-0.82995l-0.06005,-0.06c-0.21,-0.2 -0.41993,-0.41 -0.63965,-0.63c-0.21045,-0.2 -0.41016,-0.41 -0.61035,-0.62c-0.21,-0.2 -0.41016,-0.41 -0.6001,-0.62006l-0.15967,-0.16l-0.05029,-0.05l-1.92969,-1.71l0,2.67l1.16992,1.03l0.96973,0.86l20.55029,18.12l1.92969,1.71l0.49023,0.43l0.46,-0.67l0.69,-0.99l-1.21987,-1.07998zm352.46973,11.62l-53.8101,0c0.03027,0.66 0.08008,1.33 0.12988,2l55.08008,0l-1.39986,-2z"/>
  <path id="svg_11" fill="#2f2e41" d="m52.93726,312.77253l0,-23.59961a35.5,35.5 0 0 1 71,0l0,23.59961a1.90257,1.90257 0 0 1 -1.90039,1.90039l-2.13379,0a1.90234,1.90234 0 0 1 -1.73657,-1.12891l-0.50586,-1.13769a0.90063,0.90063 0 0 0 -1.72339,0.36621a1.90257,1.90257 0 0 1 -1.90039,1.90039l-59.19924,0a1.90258,1.90258 0 0 1 -1.90037,-1.90039z"/>
  <polygon id="svg_12" fill="#ffb8b8" points="127.488 633.487 139.748 633.487 145.58 586.199 127.486 586.2 127.488 633.487"/>
  <path id="svg_13" fill="#2f2e41" transform="rotate(179.99737548828125 505.56872558593756,1401.2513427734377) " d="m847.71098,2157.64862l38.53075,0a0,0 0 0 1 0,0l0,14.88687a0,0 0 0 1 0,0l-23.6439,0a14.88686,14.88686 0 0 1 -14.88686,-14.88686l0,0a0,0 0 0 1 0.00001,-0.00001z"/>
  <polygon id="svg_14" fill="#ffb8b8" points="36.488 633.487 48.748 633.487 54.58 586.199 36.486 586.2 36.488 633.487"/>
  <path id="svg_15" fill="#2f2e41" transform="rotate(179.99737548828125 323.5687255859375,1401.2554931640627) " d="m574.71098,2157.65277l38.53075,0a0,0 0 0 1 0,0l0,14.88687a0,0 0 0 1 0,0l-23.6439,0a14.88686,14.88686 0 0 1 -14.88686,-14.88686l0,0a0,0 0 0 1 0,0l0.00001,-0.00001z"/>
  <path id="svg_16" fill="#2f2e41" d="m107.54078,591.08991l-23.70532,-96.35058a3.5,3.5 0 0 0 -6.89307,0.6416l-5.27685,94.23047a4.4998,4.4998 0 0 1 -4.85181,4.23242l-42.14771,-3.37109a4.4965,4.4965 0 0 1 -4.13964,-4.60059c0.55493,-20.73242 11.167,-165.373 41.43481,-196.99023a4.48253,4.48253 0 0 1 4.17407,-1.24122l40.42041,11.001a4.51181,4.51181 0 0 1 3.428,3.39551l44.53467,179.50976a4.49984,4.49984 0 0 1 -3.52564,5.40723l-38.21777,7.47656a4.49311,4.49311 0 0 1 -5.23413,-3.34082l-0.00002,-0.00002z"/>
  <circle id="svg_17" fill="#ffb8b8" r="24.56103" cy="289.59024" cx="93.28766"/>
  <path id="svg_18" fill="#6c63ff" d="m106.04737,401.31257l-42.40552,-9.51953a4.494,4.494 0 0 1 -3.4917,-3.93946l-2.94946,-29.22558a32.01247,32.01247 0 0 1 24.89038,-34.502q0.51049,-0.1128 1.01978,-0.21875l0.00024,0a31.4633,31.4633 0 0 1 29.344,9.19921a32.00291,32.00291 0 0 1 7.8916,30.2627l-8.95655,34.67773a4.47751,4.47751 0 0 1 -4.34008,3.377a4.5944,4.5944 0 0 1 -1.00269,-0.11132z"/>
  <path id="svg_19" fill="#ffb8b8" d="m0.91037,445.62657a9.07777,9.07777 0 0 1 5.64894,-12.72182l30.69314,-62.72552l15.83345,11.7907l-35.034,57.7625a9.12691,9.12691 0 0 1 -17.14157,5.89414l0.00004,0z"/>
  <path id="svg_20" fill="#ffb8b8" d="m209.7038,411.86654a9.07768,9.07768 0 0 0 -10.67255,-8.936l-55.17218,-42.80877l-9.02616,17.557l56.88493,36.4416a9.12692,9.12692 0 0 0 17.986,-2.25381l-0.00004,-0.00002z"/>
  <path id="svg_21" fill="#6c63ff" d="m51.72408,386.98698a3.70491,3.70491 0 0 1 -1.7854,-0.459l-16.62105,-9.13573a3.72282,3.72282 0 0 1 -1.56152,-4.877l16.74218,-34.791a14.7397,14.7397 0 0 1 7.48731,-7.29883a14.3368,14.3368 0 0 1 14.51855,1.99122a13.67253,13.67253 0 0 1 3.74732,4.54492a14.2798,14.2798 0 0 1 -0.1626,13.59765l-19.09937,34.50879a3.73029,3.73029 0 0 1 -3.26542,1.91898z"/>
  <path id="svg_22" fill="#6c63ff" d="m135.38547,380.85828l-32.34064,-22.5771a14.27982,14.27982 0 0 1 -6.132,-12.13761a13.67257,13.67257 0 0 1 1.3639,-5.73048a14.33678,14.33678 0 0 1 12.15947,-8.17928a14.7397,14.7397 0 0 1 9.93588,3.25746l30.34841,23.86819a3.72283,3.72283 0 0 1 0.74487,5.06638l-10.90214,15.51986a3.72688,3.72688 0 0 1 -5.17775,0.91258z"/>
  <path id="svg_23" fill="#2f2e41" d="m64.93726,281.17292a25.5,25.5 0 0 1 51,0l0,1.5l-6.60205,0a1.69326,1.69326 0 0 1 -1.37475,-0.707l-1.199,-1.67773a0.6893,0.6893 0 0 0 -1.24536,0.48535a1.68915,1.68915 0 0 1 -1.67651,1.89941l-38.90233,0l0,-1.50003z"/>
  <path id="svg_24" fill="#f2f2f2" d="m721.01783,634.67292l-486.16113,0a15.93753,15.93753 0 0 1 -15.91944,-15.91946l0,-288.43113a15.93753,15.93753 0 0 1 15.91944,-15.91943a14.09637,14.09637 0 0 1 14.08056,14.08056l0,271.27a14.93639,14.93639 0 0 0 14.91944,14.91943l455.51928,0a10.12544,10.12544 0 0 1 9.91529,7.5874a9.72,9.72 0 0 1 -4.30689,11.18457a7.595,7.595 0 0 1 -3.96655,1.22806z"/>
  <line stroke="#cccccc" stroke-linecap="null" stroke-linejoin="null" id="svg_28" y2="185.08646" x2="355.21862" y1="97.08646" x1="194.21863" opacity="undefined" fill-opacity="null" stroke-dasharray="null" stroke-width="3" fill="none"/>
  <line stroke="#cccccc" stroke-linecap="null" stroke-linejoin="null" id="svg_29" y2="167.08646" x2="494.21863" y1="-0.91354" x1="565.21863" opacity="undefined" fill-opacity="null" stroke-dasharray="null" stroke-width="3" fill="none"/>
  <line stroke-linecap="null" stroke-linejoin="null" id="svg_32" y2="206.08646" x2="707.21863" y1="207.08646" x1="395.21863" opacity="undefined" fill-opacity="null" stroke-dasharray="null" stroke-width="null" stroke="#000000" fill="none"/>
  <line stroke="#000000" stroke-linecap="null" stroke-linejoin="null" id="svg_33" y2="242.08646" x2="690.21863" y1="243.08646" x1="417.21863" opacity="undefined" fill-opacity="null" stroke-dasharray="null" stroke-width="null" fill="none"/>
  <line stroke-linecap="null" stroke-linejoin="null" id="svg_34" y2="273.08646" x2="707.21863" y1="274.08646" x1="395.21863" opacity="undefined" fill-opacity="null" stroke-dasharray="null" stroke-width="null" stroke="#000000" fill="none"/>
  <line stroke="#000000" stroke-linecap="null" stroke-linejoin="null" id="svg_35" y2="304.08646" x2="696.21863" y1="305.08646" x1="408.21863" opacity="undefined" fill-opacity="null" stroke-dasharray="null" stroke-width="null" fill="none"/>
  <line stroke-linecap="null" stroke-linejoin="null" id="svg_36" y2="334.08646" x2="707.21863" y1="335.08646" x1="395.21863" opacity="undefined" fill-opacity="null" stroke-dasharray="null" stroke-width="null" stroke="#000000" fill="none"/>
 </g>
</svg>